<?xml version="1.0" encoding="utf-8"?>
<!-- Generator: Adobe Illustrator 27.8.1, SVG Export Plug-In . SVG Version: 6.00 Build 0)  -->
<svg version="1.1" id="Layer_1" xmlns="http://www.w3.org/2000/svg" xmlns:xlink="http://www.w3.org/1999/xlink" x="0px" y="0px"
	 viewBox="0 0 501.5 197.8" style="enable-background:new 0 0 501.5 197.8;" xml:space="preserve">
<style type="text/css">
	.st0{fill:#EB533A;}
	.st1{fill:#12ABE3;}
	.st2{fill:#58595B;}
	.st3{fill:#78230E;}
</style>
<polygon class="st0" points="423.7,11.8 415.9,46.8 405.8,11.8 401.5,31.2 411.6,66.5 421.4,66.5 433.9,11.8 "/>
<polygon class="st0" points="294,11.8 280.1,50.6 285,66.5 304.7,11.8 "/>
<path class="st0" d="M344.5,41.9v14.5h19.4v10.1h-29.8V11.8h29.8V22h-19.4v9.8V41.9z"/>
<g>
	<path class="st1" d="M440.2,35.5c0,0-23.1,3.2-35,2.9c-30.9-0.3-70.8-10.7-94.2-13.3c-16.8-2-39.9,10.7-51.5,17.9
		c-4.9,2.9-10.4,6.4-16.2,10.1c-1.2-7.8-2.9-15.3-4.9-22c-10.7-42.2-17.3,26-37,23.1c-12.4-1.7-4-32.7-4-32.7
		c-6.6-3.5-10.1,7.2-9.5,12.1c-5.2,2.6-27.5,24.9-35.3,7.5c-6.6-16.8-23.1-4.3-25.7,3.5c0,0,4.6-30.1,2.3-37.3
		C118.2-20.2,100,37.9,100,39c-1.2,0.3,12.1-32.4,0-27.2c-3.8,1.7-6.1,22.5-8.4,38.7c-2.3,16.2-2.3,20.2,0,20.8
		c2.3,0.6,6.6-1.4,9.5-10.7c5.2-15,11.6-41.3,19.4-50.6c0,0,0.6,19.1-1.7,31.8c-2.3,13-2.3,16.5,0.6,17.1
		c6.6,2.6,15.3-19.1,21.1-18.5c4-0.3,7.2,11.9,11.9,13.6c9.8,6.1,30.1-6.9,34.4-11c-0.6,22.8,19.4,24.3,33.2,6.1
		c4.6-6.4,9.5-16.5,9.5-16.5c2.9,8.7,5.2,17.1,6.6,24.9c-11.6,7.8-23.4,16.8-35,26.6h11.6C222,76.6,231,69.9,237.6,65
		c0.9,6.6,1.2,13,1.4,19.1h6.6c0-8.1-0.6-15.9-1.4-23.7c0.9-0.6,1.7-1.2,2.3-1.7c0,0,39.9-20.8,48-23.7c16.8-5.8,61.9,4.6,85.6,8.4
		c25.4,4,47.1,1.4,56.9-0.3C447.4,41.9,440.2,35.5,440.2,35.5z"/>
	<path class="st1" d="M236.4,112.1c-15.3,76.6-92.2,103.8-82.7,44.2c2.3-13.6,13.9-29.2,28.3-44.2H172
		c-18.5,20.5-30.1,42.2-25.7,61.9c7.5,33.2,46,30.4,72.3-0.6c13.9-16.5,21.7-38.4,25.1-61.3C243.7,112.1,236.4,112.1,236.4,112.1z"
		/>
</g>
<g>
	<g>
		<path class="st2" d="M2.3,91.3h2.6l3.2,9.8l3.2-9.8h2.6l2.6,14.2h-2.6l-1.4-9l-2.9,9H6.9l-2.9-9l-1.4,9H0L2.3,91.3z"/>
		<path class="st2" d="M19.7,91.3h2.9l2.6,5.2l2.6-5.2h2.9l-4,8.1v6.1H24v-6.1L19.7,91.3z"/>
		<path class="st2" d="M41,91.3h2.9l3.5,10.1l3.5-10.1h2.9l-4.9,14.2h-2.6L41,91.3z"/>
		<path class="st2" d="M57.8,91.3h2.6v14.2h-2.6V91.3z"/>
		<path class="st2" d="M65.6,91.3h2.9c1.4,0,2.6,0,3.5,0.3c0.6,0.3,1.2,0.9,1.7,1.4c0.3,0.6,0.6,1.4,0.6,2.3c0,0.9-0.3,1.7-0.6,2.3
			c-0.3,0.6-1.2,1.2-2,1.4l3.5,6.4h-2.9l-3.8-5.8h-0.3v5.8h-2.6V91.3z M68.2,97.1h0.9c0.9,0,1.4,0,1.7-0.3c0.3-0.3,0.6-0.6,0.6-1.2
			c0-0.3,0-0.6-0.3-0.9c-0.3-0.3-0.3-0.3-0.6-0.6c-0.3,0-0.9-0.3-1.4-0.3h-0.9V97.1z"/>
		<path class="st2" d="M77.5,91.3h7.8v2.6h-2.6v11.6h-2.6V93.9h-2.6V91.3z"/>
		<path class="st2" d="M89,91.3h2.6v9.2c0,0.9,0,1.4,0.3,1.7c0,0.3,0.3,0.6,0.6,0.9c0.3,0.3,0.6,0.3,1.2,0.3s0.9,0,1.2-0.3
			c0.3-0.3,0.6-0.6,0.6-0.9c0-0.3,0.3-0.9,0.3-2v-8.7h2.6v8.4c0,1.4,0,2.3-0.3,2.9c-0.3,0.6-0.6,1.2-0.9,1.7
			c-0.6,0.6-0.9,0.9-1.4,1.2c-0.6,0.3-1.2,0.3-2,0.3c-1.2,0-2-0.3-2.6-0.6c-0.9-0.6-1.2-1.2-1.7-1.7c-0.3-0.6-0.6-2-0.6-3.5v-9H89z"
			/>
		<path class="st2" d="M107.8,91.3h2.6l5.5,14.2H113l-1.2-2.9h-5.8l-1.2,2.9H102L107.8,91.3z M109.3,95.1l-2,4.9h3.8L109.3,95.1z"/>
		<path class="st2" d="M120,91.3h2.9v11.6h4v2.6H120V91.3z"/>
		<path class="st2" d="M137.9,91.3h2.6v14.2h-2.6V91.3z"/>
		<path class="st2" d="M145.7,91.3h2.6l6.1,9.2v-9.2h2.6v14.2h-2.6l-6.1-9.2v9.2h-2.6V91.3z"/>
		<path class="st2" d="M160.7,91.3h7.8v2.6h-2.6v11.6h-2.6V93.9h-2.6V91.3z"/>
		<path class="st2" d="M172.3,91.3h7.8v2.6h-5.2v2.6h4.9v2.6h-4.9v3.8h4.9v2.6H172V91.3H172.3z"/>
		<path class="st2" d="M197.4,93.6l-2,1.7c-1.2-1.2-2.6-2-4-2c-1.4,0-2.6,0.6-3.5,1.4c-0.9,0.9-1.4,2-1.4,3.5c0,1.4,0.6,2.6,1.4,3.5
			c0.9,0.9,2.3,1.4,3.5,1.4c0.9,0,1.7-0.3,2.3-0.6c0.6-0.3,1.2-0.9,1.4-1.7h-4v-2.6h7.2v0.6c0,1.2-0.3,2.3-0.9,3.5
			c-0.6,1.2-1.4,2-2.6,2.6c-1.2,0.6-2.3,0.9-3.5,0.9c-1.4,0-2.9-0.3-4-0.9s-2-1.4-2.6-2.6c-0.6-1.2-0.9-2.3-0.9-3.8
			c0-1.7,0.6-3.5,1.7-4.9c1.4-1.7,3.5-2.6,5.8-2.6c1.2,0,2.3,0.3,3.5,0.6C195.7,92.2,196.6,92.8,197.4,93.6z"/>
		<path class="st2" d="M203.2,91.3h2.9c1.4,0,2.6,0,3.5,0.3c0.6,0.3,1.2,0.9,1.7,1.4c0.3,0.6,0.6,1.4,0.6,2.3c0,0.9-0.3,1.7-0.6,2.3
			c-0.3,0.6-1.2,1.2-2,1.4l3.5,6.4h-2.9l-3.8-5.8h-0.3v5.8h-2.6V91.3z M205.8,97.1h0.9c0.9,0,1.4,0,1.7-0.3c0.3-0.3,0.6-0.6,0.6-1.2
			c0-0.3,0-0.6-0.3-0.9c-0.3-0.3-0.3-0.3-0.6-0.6c-0.3,0-0.9-0.3-1.4-0.3h-0.9V97.1z"/>
		<path class="st2" d="M220.5,91.3h2.6l5.5,14.2h-2.9l-1.2-2.9h-5.8l-1.2,2.9h-2.9L220.5,91.3z M222,95.1l-2,4.9h4L222,95.1z"/>
		<path class="st2" d="M231.5,91.3h7.8v2.6h-2.6v11.6h-2.6V93.9h-2.6C231.5,93.9,231.5,91.3,231.5,91.3z"/>
		<path class="st2" d="M243.1,91.3h7.8v2.6H246v2.6h4.9v2.6H246v3.8h4.9v2.6h-7.8V91.3z"/>
		<path class="st2" d="M255.2,91.3h3.2c2,0,3.5,0.3,4.6,0.9c1.2,0.6,1.7,1.4,2.6,2.6c0.6,1.2,0.9,2.6,0.9,4c0,1.2-0.3,2-0.6,2.9
			c-0.3,0.9-0.9,1.7-1.4,2.3s-1.4,1.2-2,1.2c-0.9,0.3-2,0.3-4,0.3h-3.2V91.3z M257.8,93.9v9h1.2c1.2,0,2,0,2.6-0.3
			c0.6-0.3,0.9-0.9,1.4-1.4s0.6-1.4,0.6-2.6c0-1.4-0.3-2.6-1.2-3.5c-0.9-0.6-2-1.2-3.8-1.2H257.8z"/>
		<path class="st2" d="M278.4,91.3h7.8v2.6h-4.9v2.6h4.9v2.6h-4.9v3.8h4.9v2.6h-7.8V91.3z"/>
		<path class="st2" d="M289.6,91.3h2.9l3.5,10.1l3.5-10.1h2.9l-5.2,14.2h-2.6L289.6,91.3z"/>
		<path class="st2" d="M306.4,91.3h7.8v2.6h-4.9v2.6h4.9v2.6h-4.9v3.8h4.9v2.6h-7.8V91.3z"/>
		<path class="st2" d="M318.8,91.3h2.9c1.4,0,2.6,0,3.5,0.3s1.2,0.9,1.7,1.4c0.3,0.6,0.6,1.4,0.6,2.3c0,0.9-0.3,1.7-0.6,2.3
			c-0.6,0.6-1.2,1.2-2,1.4l3.5,6.4h-2.9l-3.2-6.1H322v6.1h-2.6V91.3H318.8z M321.4,97.1h0.9c0.9,0,1.4,0,1.7-0.3
			c0.3-0.3,0.6-0.6,0.6-1.2c0-0.3,0-0.6-0.3-0.9c-0.3-0.3-0.3-0.3-0.6-0.6c-0.3,0-0.9-0.3-1.4-0.3h-0.9V97.1z"/>
		<path class="st2" d="M331,91.3h2.9l2.6,5.2l2.6-5.2h2.9l-4,8.1v6.1h-2.6v-6.1L331,91.3z"/>
		<path class="st2" d="M346,91.3h3.2c2,0,3.5,0.3,4.6,0.9c1.2,0.6,1.7,1.4,2.6,2.6c0.6,1.2,0.9,2.6,0.9,4c0,1.2-0.3,2-0.6,2.9
			c-0.3,0.9-0.9,1.7-1.4,2.3s-1.4,1.2-2,1.2c-0.9,0.3-2,0.3-3.8,0.3h-3.2V91.3H346z M348.6,93.9v9h1.2c1.2,0,2,0,2.6-0.3
			c0.6-0.3,0.9-0.9,1.4-1.4c0.6-0.6,0.6-1.4,0.6-2.6c0-1.4-0.3-2.6-1.2-3.5c-0.9-0.9-2-1.2-3.8-1.2
			C349.5,93.9,348.6,93.9,348.6,93.9z"/>
		<path class="st2" d="M365.9,91.3h2.6l5.8,14.2h-2.9l-1.2-2.9h-5.8l-1.2,2.9h-2.9L365.9,91.3z M367.4,95.1l-2,4.9h3.8L367.4,95.1z"
			/>
		<path class="st2" d="M377.2,91.3h2.9l2.6,5.2l2.6-5.2h2.9l-4,8.1v6.1h-2.6v-6.1L377.2,91.3z"/>
		<path class="st2" d="M398.9,91.3h2.6l2,9l2.6-9h2.3l2.6,9l2-9h2.6l-3.2,14.2h-2.6l-2.6-9.2l-2.6,9.2h-2.6L398.9,91.3z"/>
		<path class="st2" d="M419.4,91.3h7.8v2.6h-4.9v2.6h4.9v2.6h-4.9v3.8h4.9v2.6h-7.8V91.3z"/>
		<path class="st2" d="M431.8,91.3h2.6v11.6h4v2.6h-6.6L431.8,91.3L431.8,91.3z"/>
		<path class="st2" d="M442.2,91.3h2.6v11.6h4v2.6h-6.6L442.2,91.3L442.2,91.3z"/>
		<path class="st2" d="M452.9,91.3h2.6l6.1,9.2v-9.2h2.6v14.2h-2.6l-6.1-9.2v9.2h-2.6V91.3z"/>
		<path class="st2" d="M469.4,91.3h7.8v2.6h-4.9v2.6h4.9v2.6h-4.9v3.8h4.9v2.6h-7.8V91.3z"/>
		<path class="st2" d="M489.1,93.3l-2,1.7c-0.6-0.9-1.4-1.4-2-1.4c-0.3,0-0.6,0-0.9,0.3c-0.3,0.3-0.3,0.3-0.3,0.6
			c0,0.3,0,0.6,0.3,0.6c0.3,0.3,0.9,0.9,2,1.7c1.2,0.9,1.7,1.4,1.7,1.7c0.6,0.6,0.9,1.2,1.2,1.4c0.3,0.6,0.3,1.2,0.3,1.7
			c0,1.2-0.3,2-1.2,2.9c-0.9,0.9-1.7,1.2-3.2,1.2c-0.9,0-2-0.3-2.6-0.9c-0.9-0.6-1.4-1.2-2-2.3l2.3-1.4c0.6,1.2,1.4,1.7,2.3,1.7
			c0.6,0,0.9,0,1.2-0.3c0.3-0.3,0.6-0.6,0.6-0.9s0-0.6-0.3-0.9c-0.3-0.3-0.9-0.9-1.4-1.4c-1.4-1.2-2.6-2.3-2.9-2.9
			c-0.6-0.6-0.6-1.4-0.6-2c0-0.9,0.3-1.7,1.2-2.6c0.9-0.6,1.7-1.2,2.9-1.2c0.6,0,1.4,0.3,2,0.6C487.6,91.9,488.2,92.5,489.1,93.3z"
			/>
		<path class="st2" d="M501.2,93.3l-2,1.7c-0.6-0.9-1.4-1.4-2-1.4c-0.3,0-0.6,0-0.9,0.3c-0.3,0.3-0.3,0.3-0.3,0.6
			c0,0.3,0,0.6,0.3,0.6c0.3,0.3,0.9,0.9,2,1.7c1.2,0.9,1.7,1.4,1.7,1.7c0.6,0.6,0.9,1.2,1.2,1.4c0.3,0.6,0.3,1.2,0.3,1.7
			c0,1.2-0.3,2-1.2,2.9c-0.9,0.9-1.7,1.2-3.2,1.2c-0.9,0-2-0.3-2.6-0.9c-0.9-0.6-1.4-1.2-2-2.3l2.3-1.4c0.6,1.2,1.4,1.7,2.3,1.7
			c0.6,0,0.9,0,1.2-0.3c0.3-0.3,0.6-0.6,0.6-0.9s0-0.6-0.3-0.9c-0.3-0.3-0.9-0.9-1.4-1.4c-1.4-1.2-2.6-2.3-2.9-2.9
			c-0.6-0.6-0.6-1.4-0.6-2c0-0.9,0.3-1.7,1.2-2.6c0.9-0.6,1.7-1.2,2.9-1.2c0.6,0,1.4,0.3,2,0.6C499.8,91.9,500.3,92.5,501.2,93.3z"
			/>
	</g>
</g>
<polygon class="st3" points="266.2,11.8 255.5,11.8 274.9,66.5 285,66.5 280.1,50.6 "/>
<path class="st3" d="M312.2,11.8h10.4v54.6h-10.4V11.8z"/>
<polygon class="st3" points="397.4,11.8 387.6,46.8 379.8,11.8 369.4,11.8 381.8,66.5 391.7,66.5 401.5,31.2 405.8,11.8 "/>
</svg>
